<svg version="1.1" width="900" height="900" xmlns="http://www.w3.org/2000/svg" style=""><rect id="backgroundrect" width="100%" height="100%" x="0" y="0" fill="none" stroke="none"/>















<g class="currentLayer" style=""><title>Layer 1</title><path d="m784,399 l16,1 l12,4 l11,6 l10,10 l7,12 l4,13 v19 l-4,15 l-8,16 l-7,9 l-11,11 l-13,8 l-11,5 l-18,4 h-11 l-14,-3 l-9,-4 l-11,-7 l-7,-8 l-8,-16 l-2,-11 v-13 l2,-12 l7,-16 l6,-10 l11,-12 l12,-9 l16,-8 l11,-3 z" fill="#b6b6b6" id="svg_2" class="" stroke="#b6b6b6" stroke-opacity="1" fill-opacity="1"/><path d="m578,400 h25 l17,4 l16,6 l1,5 l-19,104 l-3,9 h-20 l-1,-1 l1,-9 l3,-11 v-5 l-6,9 l-11,11 l-12,6 l-12,3 h-15 l-12,-4 l-11,-8 l-8,-11 l-4,-10 l-2,-10 v-14 l3,-15 l7,-16 l10,-13 l8,-8 l12,-9 l16,-8 l12,-4 z" fill="#b6b6b6" id="svg_3" class="" fill-opacity="1"/><path d="m129.37944412231445,365.67420768737793 h6.310277938842773 l4.206851959228516,2.103425979614258 l2.103425979614258,4.206851959228516 v29.44796371459961 l-2.103425979614258,31.551389694213867 l-5.2585649490356445,29.44796371459961 l-6.310277938842773,22.085972785949707 l-7.361990928649902,16.827407836914062 l-6.310277938842773,9.46541690826416 l-8.413703918457031,9.46541690826416 l-11.568842887878418,7.361990928649902 l-14.723981857299805,5.2585649490356445 l-12.620555877685547,2.103425979614258 l-17.87912082672119,-1.051712989807129 l-13.672268867492676,-3.1551389694213867 l-13.672268867492676,-7.361990928649902 l-5.2585649490356445,-5.2585649490356445 l1.051712989807129,-6.310277938842773 l12.620555877685547,-25.241111755371094 l15.775694847106934,-25.241111755371094 l10.517129898071289,-14.723981857299805 l8.413703918457031,-11.568842887878418 l12.620555877685547,-16.827407836914062 l12.620555877685547,-14.723981857299805 l9.46541690826416,-11.568842887878418 l15.775694847106934,-16.827407836914062 l8.413703918457031,-7.361990928649902 z" fill="#b6b6b6" id="svg_4" class="" fill-opacity="1"/><path d="m221,401 h20 l11,4 l8,6 l5,8 l3,10 v13 l-4,13 l-6,9 l-8,6 l-12,6 l-13,4 l-28,4 h-21 l4,10 l4,6 l6,5 l11,4 h14 l16,-4 l12,-6 h2 l-1,16 l-2,5 l-5,3 l-16,4 l-6,1 h-25 l-13,-4 l-10,-6 l-7,-7 l-6,-12 l-2,-6 l-1,-8 v-12 l2,-13 l4,-13 l6,-10 l9,-10 l11,-10 l16,-9 l13,-5 z" fill="#b6b6b6" id="svg_5" class="" fill-opacity="1"/><path d="m353,400 h9 l14,3 l10,6 l6,7 l4,8 l1,5 v18 l-4,23 l-10,53 l-2,5 h-23 l1,-9 l12,-68 l1,-8 v-11 l-3,-6 l-6,-4 h-15 l-12,5 l-10,7 l-9,10 l-8,14 l-6,15 l-6,24 l-5,30 l-1,1 h-23 l3,-21 l9,-53 l6,-35 l2,-14 l5,-1 h19 l1,4 l-3,17 l-1,4 h2 l2,-5 l8,-10 l11,-8 l10,-4 z" fill="#b6b6b6" id="svg_6" class="" fill-opacity="1"/><path d="m778,422 h16 l9,3 l10,9 l6,12 l1,6 v9 l-3,12 l-8,16 l-12,12 l-10,6 l-11,4 l-9,1 l-12,-2 l-11,-7 l-6,-9 l-3,-8 l-1,-12 l3,-14 l7,-14 l6,-7 h2 l2,-4 l8,-6 l12,-6 z" fill="#FEFEFE" id="svg_7" class=""/><path d="m585,420 h11 l11,2 l4,3 l-1,11 l-5,23 l-5,16 l-7,13 l-9,10 l-7,7 l-13,6 l-6,1 h-9 l-8,-3 l-9,-8 l-4,-9 v-20 l5,-15 l8,-13 l9,-9 l10,-7 l11,-5 z" fill="#FEFEFE" id="svg_8" class="selected"/><path d="m519,403 h2 l-2,6 l-19,32 l-8,13 l-42,70 l-5,6 l-7,1 l-3,-7 l-4,-15 l-14,-58 l-11,-44 l1,-3 h22 l3,9 l13,60 l4,13 v2 h2 l2,-7 l10,-18 l12,-21 l15,-27 l6,-11 z" fill="#b6b6b6" id="svg_9" class="" fill-opacity="1"/><path d="m686,366 l1,4 l-7,34 h44 l-3,10 l-4,9 l-2,1 h-38 l-5,30 l-7,37 v11 l4,6 l5,2 h15 l5,-1 l-2,13 l-3,5 l-9,2 h-14 l-10,-3 l-6,-4 l-6,-7 l-2,-7 v-18 l6,-40 l6,-36 l6,-35 l17,-9 z" fill="#b6b6b6" id="svg_10" class="" fill-opacity="1"/><path d="m57,397 h2 l-2,6 l-13,28 l-11,25 l-14,30 l-7,16 h-3 l-6,-17 l-3,-12 v-18 l4,-12 l7,-13 l5,-6 h2 l2,-4 l13,-10 l14,-8 z" fill="#b6b6b6" id="svg_11" class="" fill-opacity="1"/><path d="m221,422 h13 l6,4 l3,4 l1,3 v12 l-5,8 l-7,6 l-13,5 l-15,3 h-27 l1,-7 l6,-11 l7,-9 l10,-9 l16,-8 z" fill="#FEFEFE" id="svg_12"/></g></svg>