<svg width="165" height="34" fill="none" xmlns="http://www.w3.org/2000/svg"><rect id="backgroundrect" width="100%" height="100%" x="0" y="0" fill="none" stroke="none"/>

<defs>
<clipPath id="clip0_7429_1409">
<rect width="165" height="34" fill="white" id="svg_1"/>
</clipPath>
</defs>
<g class="currentLayer" style=""><title>Layer 1</title>
<path fill-rule="evenodd" clip-rule="evenodd" d="M8.79278527372044,19.98985506954193 C10.672279025165258,21.80695506954193 13.719669115068136,21.80695506954193 15.599152366019903,19.98985506954193 C17.478194596263585,18.17275506954193 17.478194596263585,15.22545506954193 15.599152366019903,13.408355069541932 C13.719669115068136,11.591255069541932 10.672279025165258,11.591255069541932 8.79278527372044,13.408355069541932 C6.913738843279538,15.22545506954193 6.913738843279538,18.17275506954193 8.79278527372044,19.98985506954193 zM28.170710162283594,25.565855069541932 C26.291646931053815,23.748755069541932 23.243773818470657,23.748755069541932 21.364815592171368,25.565855069541932 C19.48617238066357,27.382955069541932 19.48617238066357,30.33025506954193 21.364815592171368,32.14735506954193 C23.244298843123136,33.964455069541934 26.291646931053815,33.964455069541934 28.171130182005584,32.14735506954193 C30.050193413235366,30.32985506954193 30.050193413235366,27.382955069541932 28.170710162283594,25.565855069541932 zM33.936740905691806,13.408355069541932 C32.05767767446202,15.22545506954193 32.05767767446202,18.17275506954193 33.936740905691806,19.98985506954193 C35.81622415664357,21.80695506954193 38.863782254435236,21.80695506954193 40.74263547580403,19.98985506954193 C42.62232873661679,18.17275506954193 42.62232873661679,15.22545506954193 40.74263547580403,13.408355069541932 C38.864097269226725,11.591255069541932 35.81622415664357,11.591255069541932 33.936740905691806,13.408355069541932 zM21.364815592171368,1.2508250695419312 C19.48617238066357,3.0679150695419306 19.48617238066357,6.0148450695419315 21.364815592171368,7.832355069541931 C23.244298843123136,9.649445069541931 26.291646931053815,9.649445069541931 28.171130182005584,7.832355069541931 C30.044943166710553,6.019535069541931 30.050193413235366,3.0823850695419317 28.185200842692076,1.2644550695419317 C28.18037061588925,1.2597750695419312 28.176065413738904,1.255085069541931 28.170710162283594,1.250405069541931 C26.291646931053815,-0.5662669304580685 23.243773818470657,-0.5662629304580685 21.364815592171368,1.2508250695419312 zM15.599152366019903,1.2508250695419312 C14.992748892404256,0.6648490695419311 14.265768257099806,0.26739506954193115 13.49480105641049,0.05972706954193119 C13.483807040187534,0.05674806954193112 13.471909981562316,0.053758069541931075 13.460485445124327,0.05077906954193123 C13.064858368493734,-0.05220323045806907 12.64899684175652,-0.10795003045806906 12.220387716457067,-0.10880191045806886 H12.209393700234113 C9.559363268315014,-0.10880191045806886 7.410123400967775,1.9695850695419312 7.403962761695562,4.534795069541931 C7.403962761695562,4.538195069541931 7.403962761695562,4.541595069541931 7.403962761695562,4.545425069541931 C7.403962761695562,6.685935069541931 8.896635149981197,8.489405069541931 10.928827071353611,9.031995069541932 C11.336319705130277,9.14092506954193 11.765810871845899,9.199235069541931 12.209393700234113,9.199235069541931 C13.077616467549023,9.199235069541931 13.874131367828069,9.272425069541931 14.598455378390966,9.417965069541932 C17.417039724742587,9.98435506954193 19.139866119887053,11.648655069541931 19.728628765179334,14.374755069541932 C19.861565007187544,14.990055069541931 19.93632851770085,15.65945506954193 19.95354932630223,16.38205506954193 C19.94651399595898,16.48295506954193 19.943363848044093,16.58505506954193 19.943363848044093,16.687555069541933 C19.943363848044093,17.535255069541932 19.866395233990367,18.31235506954193 19.713718065048873,19.018455069541933 C19.124430395104106,21.736755069541932 17.4055941873185,23.39895506954193 14.594937713219341,23.96885506954193 C13.864890933944402,24.11695506954193 13.06134070332211,24.190955069541932 12.184308022338566,24.190955069541932 C10.935421380988775,24.190955069541932 9.792159199225125,24.658655069541933 8.934037906223951,25.42195506954193 C8.888717778221784,25.47045506954193 8.841192546679196,25.518655069541932 8.79278527372044,25.56535506954193 C6.994269224575696,27.30465506954193 6.917258608549771,30.07915506954193 8.561753425642667,31.907255069541932 C8.635676896712003,31.989455069541933 8.712698013230977,32.069555069541934 8.79278527372044,32.14695506954193 C9.577844136082348,32.90105506954193 10.630025041133582,33.39515506954193 11.800136983625112,33.48445506954193 L12.378367634388624,33.494655069541935 C14.945675182062802,33.39625506954193 16.99720901163262,31.35155506954193 16.99720901163262,28.844655069541933 C16.99720901163262,28.753155069541933 16.99809105304879,28.661755069541933 16.999844635388072,28.57145506954193 C17.01437731776875,27.83485506954193 17.08962385096234,27.15385506954193 17.22383065262955,26.52845506954193 C17.810923719526947,23.79635506954193 19.535944717718777,22.12865506954193 22.361102372719465,21.56045506954193 C22.996067187430082,21.43285506954193 23.68741964981717,21.36105506954193 24.43368969085377,21.34515506954193 C24.41877899072331,21.34405506954193 24.403343265940368,21.343055069541933 24.388012546087918,21.34135506954193 L24.458365849520384,21.34275506954193 L24.478631801106154,21.34445506954193 L24.503307959772762,21.34405506954193 C24.582901697088896,21.34275506954193 24.663020459057506,21.341755069541932 24.74397926047009,21.341755069541932 L24.50593308303517,21.34405506954193 L24.766870335318266,21.34855506954193 H24.7686554191367 L25.078839983822522,21.343055069541933 L25.146253149201094,21.341755069541932 C25.08640033881825,21.346455069541932 25.026022503782926,21.34985506954193 24.96616969340008,21.35195506954193 L24.89802149350804,21.350855069541932 C24.857489590336503,21.35195506954193 24.817062692095455,21.352555069541932 24.7769508086459,21.35295506954193 C25.64744168245953,21.35295506954193 26.445689164091764,21.42605506954193 27.171273233820614,21.57295506954193 C29.988555519034087,22.140555069541932 31.70958632986706,23.80615506954193 32.297088915993385,26.533555069541933 C32.44892604549092,27.23735506954193 32.525054620100676,28.01185506954193 32.525054620100676,28.85615506954193 C32.525054620100676,30.10335506954193 33.03159840481442,31.23635506954193 33.856622143723186,32.07155506954193 C33.8840284305827,32.09635506954193 33.91069968292874,32.12145506954193 33.93726593034428,32.14695506954193 C34.82529262755078,33.00525506954193 35.973836557318386,33.458455069541934 37.136871167494476,33.50625506954193 C37.13823623159092,33.50565506954193 37.13991631047887,33.50625506954193 37.141281374575314,33.50625506954193 L37.71418827536267,33.49605506954193 C38.88205311234158,33.40605506954193 39.93294245674771,32.91215506954193 40.71627923824948,32.15845506954193 C41.62236678350133,31.280955069541932 42.13594589855831,30.099555069541932 42.13594589855831,28.85615506954193 C42.13594589855831,26.330855069541933 40.02461176107091,24.254655069541933 37.428679869343455,24.20325506954193 C37.39560331623715,24.20225506954193 37.36305178778332,24.20225506954193 37.329975234677015,24.20225506954193 C36.46000938551587,24.20225506954193 35.66228692853612,24.12915506954193 34.937017873598755,23.98285506954193 C32.119315568663296,23.415055069541932 30.398284757830318,21.74905506954193 29.81036215198201,19.02185506954193 C29.66598037254971,18.35195506954193 29.590376822592432,17.61825506954193 29.583236487318693,16.82125506954193 C29.584181531693158,16.78165506954193 29.584601551415144,16.74205506954193 29.584601551415144,16.70205506954193 C29.584601551415144,15.856555069541933 29.660730126024898,15.08075506954193 29.81393231961888,14.376455069541931 C30.402169940258677,11.653755069541932 32.12288573630017,9.98945506954193 34.9383829376952,9.420085069541932 C35.66753717506093,9.272845069541932 36.469354824330026,9.198795069541932 37.34362587564152,9.198795069541932 C38.61765069735211,9.198795069541932 39.77596008565587,8.720055069541932 40.63679050586384,7.93832506954193 C40.67154713785809,7.9025850695419315 40.70672378957432,7.867265069541931 40.74263547580403,7.832355069541931 C42.62232873661679,6.0148450695419315 42.62232873661679,3.067505069541931 40.74263547580403,1.2508250695419312 C40.739065308167156,1.2469950695419314 40.7351801257388,1.2435950695419313 40.73202997782391,1.2401950695419313 C40.72289454887074,1.2308350695419317 40.71375911991757,1.2214750695419312 40.70357364165943,1.2129550695419313 C39.8362329157607,0.3950550695419315 38.65062224552792,-0.10880191045806886 37.34362587564152,-0.10880191045806886 H37.332705362869916 C34.67996580374401,-0.10284436045806888 32.53135491593045,1.9789350695419312 32.53135491593045,4.544995069541931 C32.53135491593045,4.5973350695419315 32.53072488634747,4.650105069541931 32.530304866625485,4.70203506954193 C32.5215894573943,5.485035069541931 32.44598590743702,6.206775069541932 32.303809231545145,6.866375069541931 C31.71578162076634,9.593705069541931 29.99265071132344,11.259755069541932 27.172218278195082,11.828255069541932 C26.535048359944046,11.956355069541932 25.841910813738526,12.028755069541932 25.092910644509015,12.044855069541931 C25.041038208843883,12.046155069541932 24.989060768248258,12.046955069541932 24.937188332583126,12.04745506954193 C24.93319814522427,12.04745506954193 24.9296279775874,12.04745506954193 24.92574279515904,12.046955069541932 C24.879960645462692,12.046155069541932 24.834178495766338,12.044855069541931 24.787976326348005,12.044855069541931 C24.78451116364163,12.044855069541931 24.78094099600476,12.044855069541931 24.7769508086459,12.044855069541931 C24.745764344288528,12.044855069541931 24.71405285527867,12.04525506954193 24.68286639092129,12.046155069541932 C24.659975316073115,12.046555069541931 24.636139196850475,12.046955069541932 24.612828102280318,12.047855069541932 C24.611988062836346,12.047855069541932 24.61104301846188,12.047855069541932 24.61020297901791,12.047855069541932 C24.548145065094648,12.04745506954193 24.48650717089337,12.046155069541932 24.424974281622585,12.044855069541931 C23.68342946245831,12.028255069541931 22.996067187430082,11.955455069541932 22.364147515703856,11.82785506954193 C19.548230294586837,11.258455069541931 17.828459542919813,9.592005069541932 17.24188100018185,6.863395069541932 C17.09094691308659,6.160385069541931 17.014807837983785,5.387585069541931 17.014807837983785,4.544995069541931 C17.014807837983785,3.2989850695419314 16.50962911736649,2.1674650695419313 15.685392915436443,1.3321150695419317 C15.656369552647291,1.3057250695419311 15.627755709087072,1.2784850695419312 15.599152366019903,1.2508250695419312 z" fill="#384BFF" id="svg_3" class=""/>
<path d="M65.4476704983012,30.88795506954193 H51.451773322321586 C50.85251018397969,30.88795506954193 50.552931117273985,30.58315506954193 50.552931117273985,29.97345506954193 V3.802415069541931 C50.552931117273985,3.1927750695419315 50.85251018397969,2.887955069541931 51.451773322321586,2.887955069541931 H65.4476704983012 C66.01826729061764,2.887955069541931 66.30367069170636,3.1927750695419315 66.30367069170636,3.802415069541931 V6.763535069541931 C66.30367069170636,7.373185069541931 66.01826729061764,7.678005069541932 65.4476704983012,7.678005069541932 H56.50230046932858 C56.15987939098042,7.678005069541932 55.98861634934109,7.83767506954193 55.98861634934109,8.157005069541931 V13.81795506954193 C55.98861634934109,14.137255069541931 56.15987939098042,14.296955069541932 56.50230046932858,14.296955069541932 H63.82124912984532 C64.42040726325672,14.296955069541932 64.71998632996244,14.601755069541932 64.71998632996244,15.21145506954193 V18.172555069541932 C64.71998632996244,18.782155069541933 64.42040726325672,19.087055069541933 63.82124912984532,19.087055069541933 H56.50230046932858 C56.15987939098042,19.087055069541933 55.98861634934109,19.24675506954193 55.98861634934109,19.56605506954193 V25.61885506954193 C55.98861634934109,25.93815506954193 56.15987939098042,26.097955069541932 56.50230046932858,26.097955069541932 H65.4476704983012 C66.01826729061764,26.097955069541932 66.30367069170636,26.402755069541932 66.30367069170636,27.012355069541933 V29.97345506954193 C66.30367069170636,30.58315506954193 66.01826729061764,30.88795506954193 65.4476704983012,30.88795506954193 z" fill="#ffffff" id="svg_4" class="" fill-opacity="1"/>
<path d="M74.71729575264614,30.88795506954193 H70.24209061982792 C69.4739795532481,30.88795506954193 69.26732985003154,30.58595506954193 69.62172149045628,29.982055069541932 L75.20472864000958,19.672255069541933 L69.62172149045628,9.793835069541931 C69.32634262097042,9.18991506954193 69.50348593871755,8.887955069541931 70.15346645848912,8.887955069541931 H74.67298367197674 C75.38197696268719,8.887955069541931 75.8397984596507,9.18991506954193 76.04665817272824,9.793835069541931 L78.83810924503965,16.350655069541933 H79.01535756771726 L81.45231199467342,9.793835069541931 C81.65906670282047,9.18991506954193 82.11699320471448,8.887955069541931 82.82598649542491,8.887955069541931 H87.25687954757375 C88.02488560922308,8.887955069541931 88.21683462217015,9.18991506954193 87.83293659627599,9.793835069541931 L82.5158019307391,19.672255069541933 L88.23174532230061,29.982055069541932 C88.37938225457829,30.240855069541933 88.39408294484775,30.45655506954193 88.27595239803952,30.62915506954193 C88.18743324163121,30.80165506954193 87.99527421882313,30.88795506954193 87.70000035426777,30.88795506954193 H83.13606605518025 C82.5158019307391,30.88795506954193 82.07268112404508,30.58595506954193 81.80680864002866,29.982055069541932 L79.01535756771726,23.38205506954193 H78.83810924503965 L76.04665817272824,29.982055069541932 C75.8397984596507,30.58595506954193 75.39667765295667,30.88795506954193 74.71729575264614,30.88795506954193 z" fill="#ffffff" id="svg_5" class="" fill-opacity="1"/>
<path d="M92.00688258350056,13.933455069541932 H90.30055246293705 C89.95928643882435,13.933455069541932 89.71756508882207,13.876955069541932 89.57538841293018,13.76395506954193 C89.46156306827228,13.650855069541931 89.40475540087384,13.42485506954193 89.40475540087384,13.085755069541932 V10.16115506954193 C89.40475540087384,9.567705069541931 89.70338942320507,9.271005069541932 90.30055246293705,9.271005069541932 H92.00688258350056 C92.31969227144879,9.271005069541932 92.47614961788815,9.115575069541931 92.47614961788815,8.804755069541931 V4.778065069541931 C92.47614961788815,4.184655069541932 92.78895930583637,3.887955069541931 93.41468368666332,3.887955069541931 H96.9979769398467 C97.59513997957868,3.887955069541931 97.89377400190992,4.184655069541932 97.89377400190992,4.778065069541931 V8.804755069541931 C97.89377400190992,9.115575069541931 98.06440701396626,9.271005069541932 98.40567303807896,9.271005069541932 H101.73296427071256 C102.33023231537503,9.271005069541932 102.62886633770627,9.567705069541931 102.62886633770627,10.16115506954193 V13.085755069541932 C102.62886633770627,13.39655506954193 102.55767299482983,13.622655069541931 102.41549631893795,13.76395506954193 C102.30167097428006,13.876955069541932 102.07423029482526,13.933455069541932 101.73296427071256,13.933455069541932 H98.40567303807896 C98.06440701396626,13.933455069541932 97.89377400190992,14.088855069541932 97.89377400190992,14.399755069541932 V23.767055069541932 C97.89377400190992,24.64315506954193 98.09275834520024,25.27885506954193 98.49093704164189,25.67445506954193 C98.88901073315304,26.04185506954193 99.54308644521397,26.22545506954193 100.45326918275518,26.22545506954193 H102.15959930331869 C102.75676234305065,26.22545506954193 103.0553963653819,26.52215506954193 103.0553963653819,27.11555506954193 V30.04025506954193 C103.0553963653819,30.351055069541932 102.98420302250545,30.57715506954193 102.84213135154407,30.718455069541932 C102.72830600688619,30.83145506954193 102.50086532743137,30.88795506954193 102.15959930331869,30.88795506954193 H99.55747212069195 C97.31068162286442,30.88795506954193 95.56171950051946,30.294555069541932 94.31048074872653,29.10775506954193 C93.08748832323712,27.920955069541932 92.47614961788815,26.22545506954193 92.47614961788815,24.021355069541933 V14.399755069541932 C92.47614961788815,14.088855069541932 92.31969227144879,13.933455069541932 92.00688258350056,13.933455069541932 z" fill="#ffffff" id="svg_6" class="" fill-opacity="1"/>
<path d="M124.10216461432141,30.88795506954193 H114.45746174824399 C112.15837879502934,30.88795506954193 110.38337544992132,30.28405506954193 109.1323467079894,29.07615506954193 C107.88110795619649,27.86835506954193 107.25559358523053,26.12855506954193 107.25559358523053,23.85655506954193 V15.919355069541933 C107.25559358523053,13.64745506954193 107.88110795619649,11.907555069541932 109.1323467079894,10.699755069541931 C110.38337544992132,9.491875069541932 112.15837879502934,8.887955069541931 114.45746174824399,8.887955069541931 H117.90477361643475 C120.20333154499693,8.887955069541931 121.97896491968793,9.491875069541932 123.22957364189786,10.699755069541931 C124.48123241341276,11.907555069541932 125.10601174986523,13.64745506954193 125.10601174986523,15.919355069541933 V21.39775506954193 C125.10601174986523,22.001655069541933 124.80044740212125,22.303655069541932 124.19036875593824,22.303655069541932 H113.23520435726803 C112.88553793871563,22.303655069541932 112.71122975409192,22.461855069541933 112.71122975409192,22.77815506954193 V23.727155069541933 C112.71122975409192,24.61875506954193 112.9002386289851,25.26575506954193 113.27825637877147,25.66835506954193 C113.6856755090968,26.04225506954193 114.35560696566266,26.22915506954193 115.28595064985913,26.22915506954193 H124.10216461432141 C124.71329330980937,26.22915506954193 125.01885765755338,26.54545506954193 125.01885765755338,27.17815506954193 V30.02525506954193 C125.01885765755338,30.34145506954193 124.94640425551098,30.571655069541933 124.80044740212125,30.71545506954193 C124.68494197857541,30.83045506954193 124.45183103287381,30.88795506954193 124.10216461432141,30.88795506954193 zM113.23520435726803,18.63695506954193 H119.17113307821911 C119.49034806692761,18.63695506954193 119.65100561058682,18.478755069541933 119.65100561058682,18.16245506954193 V16.091855069541932 C119.65100561058682,15.17165506954193 119.46199673569363,14.52455506954193 119.08292893660229,14.150655069541932 C118.70491118681592,13.77685506954193 118.05073046982449,13.589955069541931 117.11933673632305,13.589955069541931 H115.28595064985913 C114.35560696566266,13.589955069541931 113.70037619936626,13.77685506954193 113.32235844957988,14.150655069541932 C112.94434069979351,14.52455506954193 112.75533182490032,15.17165506954193 112.75533182490032,16.091855069541932 V18.16245506954193 C112.75533182490032,18.478755069541933 112.91493931925459,18.63695506954193 113.23520435726803,18.63695506954193 z" fill="#ffffff" id="svg_7" class="" fill-opacity="1"/>
<path d="M144.00689923918407,27.04875506954193 V30.02525506954193 C144.00689923918407,30.34145506954193 143.92919559061687,30.571655069541933 143.77273824417753,30.71545506954193 C143.64673232758207,30.83045506954193 143.3957705436961,30.88795506954193 143.01985289251965,30.88795506954193 H136.01392392981214 C133.53790766871137,30.88795506954193 131.62576788437528,30.28405506954193 130.27855462610881,29.07615506954193 C128.9302913185374,27.86835506954193 128.2561596647517,26.12855506954193 128.2561596647517,23.85655506954193 V15.919355069541933 C128.2561596647517,13.64745506954193 128.9302913185374,11.907555069541932 130.27855462610881,10.699755069541931 C131.62576788437528,9.491875069541932 133.53790766871137,8.887955069541931 136.01392392981214,8.887955069541931 H143.01985289251965 C143.67823380673093,8.887955069541931 144.00689923918407,9.18991506954193 144.00689923918407,9.793835069541931 V12.770355069541932 C144.00689923918407,13.086655069541932 143.92919559061687,13.316755069541932 143.77273824417753,13.460455069541931 C143.64673232758207,13.575555069541931 143.3957705436961,13.633055069541932 143.01985289251965,13.633055069541932 H136.95476810705821 C135.98347249996823,13.633055069541932 135.27783936703366,13.834355069541932 134.83891875755947,14.236955069541931 C134.43149962723416,14.61085506954193 134.2277900620715,15.257855069541932 134.2277900620715,16.17815506954193 V23.597755069541932 C134.2277900620715,24.51795506954193 134.43149962723416,25.17955506954193 134.83891875755947,25.58205506954193 C135.27783936703366,25.955955069541933 135.98347249996823,26.14285506954193 136.95476810705821,26.14285506954193 H143.01985289251965 C143.67823380673093,26.14285506954193 144.00689923918407,26.44485506954193 144.00689923918407,27.04875506954193 z" fill="#ffffff" id="svg_8" class="" fill-opacity="1"/>
<path d="M151.9505222312228,30.88795506954193 H148.1073417750613 C147.47416204416913,30.88795506954193 147.15704715407054,30.58925506954193 147.15704715407054,29.99175506954193 V1.7841150695419312 C147.15704715407054,1.1866750695419315 147.47416204416913,0.8879550695419312 148.1073417750613,0.8879550695419312 H151.9505222312228 C152.583701962115,0.8879550695419312 152.8997668029086,1.1866750695419315 152.8997668029086,1.7841150695419312 V11.428455069541931 H153.08142533266707 C153.74400644409818,9.892255069541932 155.22142581617993,9.12408506954193 157.51263339960738,9.12408506954193 H158.9596013418452 C163.69217355930965,9.12408506954193 166.0579346433894,11.442755069541931 166.0579346433894,16.07995506954193 V29.99175506954193 C166.0579346433894,30.58925506954193 165.72611906302134,30.88795506954193 165.06353795159023,30.88795506954193 H161.2655096155421 C160.63232988464992,30.88795506954193 160.31521499455135,30.58925506954193 160.31521499455135,29.99175506954193 V16.33605506954193 C160.31521499455135,15.425655069541932 160.10415508425396,14.785555069541932 159.68308531296412,14.41565506954193 C159.2903668729083,14.017455069541931 158.61203502190276,13.818255069541932 157.64808975994748,13.818255069541932 H156.02051333725612 C153.9403656641261,13.818255069541932 152.8997668029086,14.899355069541931 152.8997668029086,17.061455069541932 V29.99175506954193 C152.8997668029086,30.58925506954193 152.583701962115,30.88795506954193 151.9505222312228,30.88795506954193 z" fill="#ffffff" id="svg_9" class="selected" fill-opacity="1"/>
</g></svg>